<?xml version="1.0" encoding="utf-8"?>
<!-- Generator: Adobe Illustrator 23.0.6, SVG Export Plug-In . SVG Version: 6.00 Build 0)  -->
<svg version="1.1" id="Layer_1" xmlns="http://www.w3.org/2000/svg" xmlns:xlink="http://www.w3.org/1999/xlink" x="0px" y="0px"
	 viewBox="0 0 100 100" style="enable-background:new 0 0 100 100;" xml:space="preserve">
<style type="text/css">
	.st0{fill:#FE180C;}
</style>
<g>
	<path class="st0" d="M68.6,57.94c8.84,1.21,12.47,9.33,7.7,16.94c-2.63,4.2-6.8,6.46-11.23,7.98c-2.89,0.99-6.1,1.01-9.15,1.55
		c-1.16,0.21-2.38,0.46-3.42,0.99c-2.67,1.38-3.42,4.12-1.97,6.75c1.15,2.1,3,3.41,5.16,4.3c0.62,0.25,1.26,0.42,1.83,0.75
		c0.31,0.18,0.57,0.58,0.65,0.93c0.03,0.14-0.46,0.55-0.76,0.59c-7.69,1.38-14.67-4.37-14.57-10.59c0.08-5.16,3.83-9.44,9.05-9.92
		c1.37-0.13,2.77-0.13,4.13-0.3c5.17-0.59,9.23-3.02,11.74-7.62c1.52-2.78-0.04-5.17-3.19-5.02c-0.7,0.03-1.51,0.63-2.05,1.16
		c-5.76,5.58-12.48,7.89-20.31,5.57c-5.78-1.71-9.93-5.73-13.2-10.67c-4.04-6.1-6.15-12.87-6.71-20.13
		c-0.76-9.76,0.88-19.05,5.88-27.57c1.05-1.8,2.34-3.5,3.75-5.05c9.03-9.95,21.97-9.97,31.13-0.11c5.03,5.42,7.67,11.97,9.13,19.1
		c2.11,10.23,0.89,20.08-3.32,29.59C68.81,57.37,68.73,57.59,68.6,57.94z M25.45,36.86c0.4,10.17,2.61,19.62,9.95,27.08
		c7.62,7.74,17.42,7.59,24.98-0.21c5.26-5.43,7.82-12.16,8.85-19.52c0.34-2.45,0.33-4.95,0.48-7.36
		C54.81,36.86,40.3,36.86,25.45,36.86z M48.69,4.55c0,9.65,0,19.15,0,28.61c6.99,0,13.86,0,20.84,0c-0.73-8.33-3.32-15.7-8.68-21.92
		C57.72,7.59,53.83,5.11,48.69,4.55z M45.68,4.75C36.02,4.4,24.03,21.77,25.79,33.26c6.64,0,13.25,0,19.89,0
		C45.68,23.57,45.68,14.16,45.68,4.75z M70.3,73.12c4.16,0.31,6-1.99,5.11-6.32C72.4,67.73,70.44,69.66,70.3,73.12z M69.42,64.32
		c0.56,0.76,1.14,1.56,1.76,2.39c1.56-0.52,3.46-1.1,3.38-2.76c-0.07-1.55-1.74-2.53-3.32-3.04C70.62,62.08,70.06,63.11,69.42,64.32
		z M48.36,93.48c-0.14-2.07-0.3-4.22-0.45-6.48c-0.47-0.24-1.09-0.55-1.72-0.88C45.2,88.89,46.05,91.51,48.36,93.48z M66.69,77.04
		c2.85,1.33,4.19,0.91,5.56-1.82C70.32,75.81,67.99,74.5,66.69,77.04z M51.58,83.62c-0.44-0.66-0.82-1.23-1.32-1.96
		c-0.99,0.67-1.88,1.29-2.92,2c0.83,0.71,1.41,1.21,2.01,1.74C50.15,84.77,50.84,84.22,51.58,83.62z M62.44,79.66
		c1.12,1.76,1.52,1.74,4-0.07C65.15,78.07,63.83,78.36,62.44,79.66z M65.71,62.88c2.21,0.58,2.88,0.16,3.33-2.08
		C67.36,60.49,66.32,61.2,65.71,62.88z M56.05,82.03c-0.8-1.45-2.12-0.8-3.47-0.76C53.31,83.82,54.86,82.19,56.05,82.03z
		 M61.26,81.8c-0.74-2.04-1.93-1.2-3.23-0.77C58.87,82.94,60.14,81.8,61.26,81.8z"/>
</g>
</svg>
