<?xml version="1.0" encoding="utf-8"?>
<!-- Generator: Adobe Illustrator 23.0.6, SVG Export Plug-In . SVG Version: 6.00 Build 0)  -->
<svg version="1.1" id="Layer_1" xmlns="http://www.w3.org/2000/svg" xmlns:xlink="http://www.w3.org/1999/xlink" x="0px" y="0px"
	 viewBox="0 0 100 100" style="enable-background:new 0 0 100 100;" xml:space="preserve">
<style type="text/css">
	.st0{fill:#FE180C;}
</style>
<g>
	<g>
		<path class="st0" d="M74.23,87.69c-0.79-0.59-1.77-1.1-2.47-1.87C66,79.49,60.24,73.16,54.58,66.76
			C44.3,55.15,34.09,43.5,23.86,31.86c-1.72-1.96-3.39-3.97-5.06-5.96c-1.22-1.46-1.25-2.05,0.13-3.4c1.43-1.4,2.88-2.78,4.47-3.98
			c1.72-1.3,2.2-1.2,3.68,0.36c3.56,3.74,7.11,7.5,10.63,11.28C51.17,44.55,64.65,58.95,78.07,73.4c1.73,1.86,3.23,3.94,4.7,6.02
			c0.29,0.4,0.2,1.53-0.14,1.84c-2.18,1.98-4.46,3.83-6.74,5.69C75.52,87.24,75.01,87.35,74.23,87.69z"/>
		<path class="st0" d="M8.89,13.73c0.29-3.3,1.74-5.05,4.1-6.1c2.08-0.92,3.6,0.13,5.04,1.5c3.25,3.09,3.29,2.73-0.36,5.67
			c-1.34,1.08-2.73,2.09-4.05,3.19c-1.12,0.93-2.21,0.67-2.86-0.35C9.89,16.28,9.34,14.71,8.89,13.73z"/>
		<path class="st0" d="M87.65,90.99c1,1.17,2.06,2.29,2.98,3.52c0.34,0.46,0.36,1.16,0.53,1.75c-0.6,0-1.3,0.21-1.79-0.02
			c-3.95-1.9-7.87-3.84-11.76-5.84c-2.19-1.13-2.27-1.89-0.4-3.51c3.86-3.34,2.81-3.32,6.42,0.14c1.07,1.03,2.15,2.06,3.22,3.09
			C87.11,90.41,87.38,90.7,87.65,90.99z"/>
		<path class="st0" d="M15.86,22.85c-0.59-0.57-1.27-1.01-1.59-1.63c-0.21-0.41-0.11-1.32,0.21-1.61c2.11-1.95,4.26-3.86,6.5-5.66
			c1.02-0.82,1.94-0.25,2.68,0.71c0.75,0.97,0.09,1.5-0.55,2.07c-1.82,1.62-3.62,3.26-5.45,4.86
			C17.17,22.01,16.59,22.34,15.86,22.85z"/>
		<path class="st0" d="M87.65,90.99c-0.27-0.29-0.54-0.58-0.81-0.87c-1.49-1.7-2.94-3.44-4.47-5.1c-0.96-1.04-0.99-1.95,0.17-2.77
			c1.07-0.76,1.83-0.28,2.44,0.72c1.8,2.97,3.62,5.92,5.42,8.89c0.16,0.26,0.19,0.59,0.28,0.89c-0.12,0.13-0.24,0.27-0.36,0.4
			C89.43,92.43,88.54,91.71,87.65,90.99z"/>
	</g>
</g>
</svg>
