<?xml version="1.0" encoding="utf-8"?>
<!-- Generator: Adobe Illustrator 23.0.6, SVG Export Plug-In . SVG Version: 6.00 Build 0)  -->
<svg version="1.1" id="Layer_1" xmlns="http://www.w3.org/2000/svg" xmlns:xlink="http://www.w3.org/1999/xlink" x="0px" y="0px"
	 viewBox="0 0 100 100" style="enable-background:new 0 0 100 100;" xml:space="preserve">
<style type="text/css">
	.st0{fill:#FE180C;}
</style>
<g>
	<path class="st0" d="M13.69,94.54c0-29.67,0-59.25,0-88.94c25.87,0,51.67,0,77.56,0c0,29.66,0,59.24,0,88.94
		C65.46,94.54,39.67,94.54,13.69,94.54z M82.89,13.76c-20.28,0-40.45,0-60.75,0c0,23.12,0,46.12,0,69.11c20.34,0,40.57,0,60.75,0
		C82.89,59.77,82.89,36.8,82.89,13.76z M53.63,92.59c1.61-0.04,2.77-1.27,2.74-2.91c-0.03-1.61-1.22-2.72-2.9-2.71
		c-1.55,0.01-2.87,1.36-2.8,2.85C50.75,91.35,52.11,92.63,53.63,92.59z"/>
	<path class="st0" d="M58.65,51.2c2.13-1.69,3.84-3.21,5.72-4.47c0.7-0.47,1.81-0.32,2.73-0.46c0.14,0.97,0.62,2.05,0.34,2.89
		c-0.71,2.15-1.77,4.18-2.65,6.28c-0.32,0.75-0.54,1.55-0.81,2.32c0.09,0.14,0.19,0.28,0.28,0.42c2.56-1.08,5.12-2.16,7.68-3.23
		c0.12,0.16,0.24,0.31,0.36,0.47c-0.33,0.5-0.54,1.2-1,1.47c-2.23,1.31-4.44,2.72-6.83,3.67c-2.1,0.83-3.69-0.49-3.52-2.76
		c0.13-1.68,0.66-3.33,1.05-5.21c-1.09,1.02-2.07,1.96-3.07,2.87c-0.86,0.78-1.67,1.69-2.67,2.24c-0.72,0.39-1.98,0.65-2.53,0.28
		c-0.56-0.38-0.95-1.72-0.74-2.43c0.6-2,1.38-4,2.41-5.8c1.91-3.32,4.05-6.49,6.1-9.73c0.5-0.8,0.98-1.6,1.24-2.71
		c-0.53,0.38-1.1,0.7-1.58,1.14c-4.42,4.05-8.81,8.13-13.23,12.18c-1.8,1.65-3.65,3.24-5.51,4.83c-0.63,0.54-1.34,1-2.06,1.41
		c-1.29,0.73-2.69,1.31-4.06,0.31c-1.41-1.03-1.27-2.59-0.73-3.95c0.95-2.42,1.78-4.98,3.25-7.07c3.95-5.62,8.23-11.02,12.34-16.53
		c1.36-1.83,2.63-3.73,3.94-5.59c-0.16-0.18-0.31-0.36-0.47-0.53c-1.46,0.82-3.09,1.45-4.36,2.49c-3.16,2.6-6.15,5.41-9.25,8.09
		c-0.79,0.68-1.67,1.32-2.6,1.77c-1.73,0.84-3.11,0.1-3.41-1.81c-0.13-0.86-0.13-1.78,0.02-2.64c0.55-3.05,1.05-6.13,2.84-8.78
		c0.32-0.47,0.73-0.89,1.33-1.23c-1.96,4.2-2.95,8.51-2.79,13.02c0.21,0.12,0.41,0.23,0.62,0.35c0.88-0.61,1.84-1.13,2.61-1.86
		c2.4-2.29,4.57-4.84,7.11-6.96c2.06-1.72,4.43-3.12,6.84-4.31c0.87-0.43,2.47-0.17,3.35,0.39c1.16,0.73,0.93,2.26,0.32,3.35
		c-1.19,2.11-2.48,4.17-3.91,6.13c-3.93,5.38-8.03,10.63-11.88,16.06c-1.51,2.12-2.53,4.59-3.78,6.9c0.18,0.15,0.35,0.3,0.53,0.44
		c0.8-0.52,1.68-0.94,2.37-1.58c2.72-2.53,5.33-5.19,8.07-7.7c3.8-3.48,7.64-6.92,11.55-10.28c0.94-0.81,2.17-1.38,3.35-1.79
		c1.97-0.69,3.48,0.68,3.05,2.74c-0.21,1.01-0.62,2.03-1.13,2.93c-1.87,3.34-3.82,6.63-5.74,9.95
		C59.42,49.71,59.13,50.29,58.65,51.2z"/>
</g>
</svg>
