<?xml version="1.0" encoding="utf-8"?>
<!-- Generator: Adobe Illustrator 23.0.6, SVG Export Plug-In . SVG Version: 6.00 Build 0)  -->
<svg version="1.1" id="Layer_1" xmlns="http://www.w3.org/2000/svg" xmlns:xlink="http://www.w3.org/1999/xlink" x="0px" y="0px"
	 viewBox="0 0 100 100" style="enable-background:new 0 0 100 100;" xml:space="preserve">
<style type="text/css">
	.st0{fill:#EE2824;}
</style>
<g>
	<path class="st0" d="M57.52,57.98c-0.34,0.99-0.47,1.77-0.86,2.39c-0.52,0.83-1.13,1.92-1.92,2.16c-0.61,0.18-1.56-0.78-2.43-1.27
		c-0.59,0.83-1.09,2.45-2.96,2.18c-2.62-0.39-1.9-2.85-2.71-4.59c-0.35,0.85-0.58,1.59-0.94,2.26c-0.63,1.16-1.85,1.74-2.93,1.37
		c-0.77-0.26-1.52-1.37-1.77-2.25c-0.84-2.9-0.05-5.68,1.3-8.63c-1.28-0.13-2.34-0.24-3.39-0.35c0.15,3.26,0.08,6.36,0.47,9.39
		c0.49,3.74-1.23,6.54-3.4,9.14c-1.91,2.29-3.98,4.49-6.21,6.48c-2.75,2.46-3.43,5.25-2.19,8.64c0.33,0.9,0.53,1.86,0.85,2.96
		c-1.62,0.2-3.02,0.43-4.44,0.51c-0.33,0.02-0.84-0.45-1-0.82c-1.63-3.64-2.49-7.49-1.9-11.44c0.24-1.59,1.34-3.1,2.22-4.54
		c1.95-3.18,2.57-6.53,1.69-10.15c-0.1-0.42-0.28-0.83-0.45-1.24c-0.08-0.18-0.21-0.34-0.28-0.44c-0.3,2.28-0.47,4.57-0.94,6.8
		c-0.62,2.95-2.67,4.79-5.42,5.76c-6.12,2.17-6.16,3.15-6.92,9.92c-0.08,0.72,0.44,1.77-0.99,1.84c-2.01,0.09-3.67-0.58-3.6-1.74
		c0.19-3.3,0.28-6.65,0.93-9.87c0.36-1.77,1.59-3.48,2.77-4.95c2.28-2.85,4.9-5.42,7.18-8.27c2.05-2.55,3.02-5.59,3.09-8.9
		c0.03-1.33,0.14-2.66,0.3-3.98c0.12-1.02-0.16-1.64-1.18-2.05c-5.05-2-8.3-5.71-10.07-10.79c-0.11-0.32-0.35-0.71-0.63-0.83
		c-2.47-1.08-2.95-3.24-2.72-5.52c0.22-2.17,0.84-4.29,1.28-6.39c0.31,0,0.47-0.04,0.5,0.01c1.27,2.05,2.66,4.04,3.74,6.18
		c0.62,1.22,0.75,2.7,1.08,4.07c0.09,0.37-0.02,0.84,0.17,1.12c2.7,4.03,5.47,8,10.67,9.04c1.07,0.21,2.2,0.14,3.3,0.18
		c2.6,0.1,5.2,0.11,7.78,0.37c0.7,0.07,1.63,0.78,1.91,1.43c0.84,1.95,1.41,4.02,2,5.78c1.57,0.25,3.12,0.5,4.9,0.78
		c2.44-2.59,3.31-2.72,6.68-0.74c2.72-2.04,3.35-1.97,5.41,0.54c1.11-0.5,1.33-1.38,1.03-2.47c-0.04-0.16-0.09-0.32-0.11-0.49
		c-0.67-4.56-0.57-4.77,3.86-5.7c4.3-0.91,6.95-3.42,7.72-7.75c0.51-2.87,0.86-5.77,1.34-8.65c0.09-0.54,0.49-1.04,0.98-2.01
		c0.71,1.33,1.19,2.17,1.61,3.04c0.95,1.94,2.83,2.7,4.8,1.97c1.32-0.48,1.93-1.36,1.94-2.74c0-0.77,0.11-1.54,0.17-2.31
		c0.19-0.04,0.39-0.07,0.58-0.11c0.74,1.44,1.6,2.83,2.2,4.32c1.15,2.88,2.75,4.79,6.26,4.02c1.11-0.24,2.32-0.05,3.49-0.04
		c1.35,0.01,2.61,0.24,3.4-1.47c0.58-1.26,2.22-1.38,2.95-0.5c0.85,1.03,0.71,1.92-0.18,3.07c-0.75,0.98-0.87,2.45-1.35,3.97
		c-4.01,0.86-8.4,1.81-12.79,2.75c0.01,0.08,0.02,0.16,0.03,0.24c3.38,0,6.76,0.06,10.13-0.03c1.47-0.04,2.07,0.39,1.77,1.91
		c-0.19,0.97-0.13,2-0.42,2.94c-0.11,0.38-0.84,0.78-1.3,0.8c-2.04,0.08-4.09,0.02-6.14,0.02c-3.05,0-4.97,1.8-5.71,4.45
		c-0.89,3.21-1.32,6.57-1.74,9.89c-0.3,2.41-0.38,4.87-0.33,7.3c0.03,1.5,0.22,3.11,0.82,4.47c1.99,4.54,4.13,9.01,6.34,13.45
		c0.6,1.22,0.5,1.81-0.69,2.5c-4.82,2.77-4.01,3-6.75-1.75c-3.17-5.5-6.28-11.04-9.42-16.56c-0.05-0.08-0.15-0.13-0.5-0.41
		c0.28,1.18,0.47,2.11,0.72,3.03c1.52,5.39,3.03,10.78,4.59,16.15c0.3,1.01,0.11,1.42-0.98,1.52c-1.09,0.1-2.16,0.39-3.25,0.59
		c-1.42,0.26-2.41-0.06-2.95-1.62c-2.07-5.91-4.22-11.8-6.4-17.67c-0.19-0.51-0.8-1.25-1.17-1.23c-1.48,0.1-1.63-0.8-1.73-1.86
		C58.09,63.81,57.82,61.06,57.52,57.98z M74.37,30.3c-2.34-0.01-4.29,1.81-4.35,4.05c-0.06,2.18,2.16,4.36,4.38,4.32
		c2.23-0.04,4.29-2.09,4.26-4.25C78.62,32.15,76.71,30.31,74.37,30.3z M46.7,56.41c0.56-1.59,1.18-3.17,1.65-4.79
		c0.14-0.49,0.07-1.31-0.25-1.6c-0.78-0.71-1.85-0.92-2.68-0.1c-0.47,0.47-1.02,1.38-0.85,1.87C45.12,53.39,45.97,54.9,46.7,56.41z
		 M49.46,61.92c1.93-1.63,1.97-6.37,0.16-9.39C49.22,55.78,47.38,58.68,49.46,61.92z M43.59,53.72c-0.43,2.32-2.36,4.55-0.43,7.03
		C45.07,59.94,45.3,56.96,43.59,53.72z M51.07,49.96c0.65,2.18,1.13,3.8,1.66,5.56c0.47-1.24,0.76-2.31,1.27-3.28
		c0.59-1.14,0.18-2.08-0.68-2.56C52.79,49.39,51.85,49.84,51.07,49.96z M53.97,60.83c0.32,0.01,0.63,0.02,0.95,0.03
		c0-2.18,0-4.36,0-6.54c-0.17-0.01-0.34-0.02-0.51-0.03C54.27,56.47,54.12,58.65,53.97,60.83z"/>
	<path class="st0" d="M73.98,37.36c-1.34-0.03-2.7-1.62-2.63-3.08c0.08-1.59,1.25-2.67,2.81-2.62c1.43,0.05,2.5,1.31,2.49,2.95
		C76.65,36.2,75.49,37.39,73.98,37.36z"/>
</g>
</svg>
