<?xml version="1.0" encoding="utf-8"?>
<!-- Generator: Adobe Illustrator 23.0.6, SVG Export Plug-In . SVG Version: 6.00 Build 0)  -->
<svg version="1.1" id="Layer_1" xmlns="http://www.w3.org/2000/svg" xmlns:xlink="http://www.w3.org/1999/xlink" x="0px" y="0px"
	 viewBox="0 0 100 100" style="enable-background:new 0 0 100 100;" xml:space="preserve">
<style type="text/css">
	.st0{fill:#FE180C;}
</style>
<g>
	<g>
		<path class="st0" d="M23.81,32.18H23.8c0.19,0.23,0.37,0.46,0.55,0.7C24.17,32.64,23.99,32.41,23.81,32.18z M35.37,3.69
			c0,0.01-0.01,0.01-0.01,0.01c0.38,0.21,0.76,0.46,1.13,0.75C36.13,4.15,35.75,3.9,35.37,3.69z M71.6,28.27
			c0.26,1.2,0.44,2.43,0.53,3.69h0.01C72.05,30.7,71.88,29.47,71.6,28.27z M82.99,44.95c-0.03-0.29-0.06-0.57-0.1-0.86
			c0.03,0.28,0.06,0.56,0.09,0.84c0.06,0.49,0.11,0.97,0.17,1.46C83.09,45.91,83.04,45.43,82.99,44.95z M83.53,50.62
			c0.03,0.56,0.07,1.12,0.09,1.68c0.06,1.36-0.25,2.72-0.39,4.08h0.01c0.14-1.35,0.44-2.72,0.39-4.06
			C83.6,51.76,83.57,51.19,83.53,50.62z M88.6,54.82c0-0.12-0.01-0.25-0.04-0.37c0.02,0.12,0.03,0.23,0.03,0.35
			c0.09,3.77,0.3,7.58-0.05,11.32c-0.24,2.54-1.13,5.09-2.09,7.49c-2.43,6.11-5.89,11.58-10.72,16.11
			c-5.18,4.87-11.25,8.17-18.26,9.18c-9.36,1.35-17.55-1.39-24.45-8.01c-0.32-0.3-0.63-0.61-0.93-0.92c0.3,0.32,0.62,0.63,0.94,0.94
			c6.9,6.62,15.09,9.36,24.45,8.01c7.01-1.02,13.08-4.31,18.26-9.18c4.82-4.53,8.29-10,10.72-16.11c0.96-2.4,1.85-4.95,2.09-7.49
			C88.9,62.4,88.69,58.59,88.6,54.82z"/>
		<path class="st0" d="M88.6,54.82c0-0.12-0.01-0.25-0.04-0.37c-0.02-0.12-0.04-0.23-0.07-0.35c-0.05-0.24-0.13-0.48-0.22-0.73
			c-0.17-0.5-0.39-1.05-0.59-1.69c-0.19,0.23-0.38,0.46-0.57,0.67c-0.45,0.55-0.88,1.07-1.29,1.57c-0.43,0.52-0.84,1.01-1.24,1.5
			c-0.32,0.38-0.63,0.76-0.94,1.13c-0.06-0.03-0.13-0.05-0.2-0.08c-0.07-0.03-0.14-0.05-0.2-0.07c0-0.01,0-0.01,0-0.02
			c0.14-1.35,0.44-2.72,0.39-4.06c-0.03-0.56-0.06-1.13-0.1-1.7c-0.03-0.56-0.08-1.12-0.13-1.69c-0.02-0.23-0.04-0.45-0.07-0.68
			l-0.18-1.86c-0.06-0.48-0.11-0.96-0.16-1.44c-0.03-0.29-0.06-0.57-0.1-0.86c-0.05-0.37-0.1-0.75-0.16-1.12
			c-0.1-0.65-0.21-1.31-0.34-1.95c-0.3-1.56-0.69-3.09-1.17-4.6c-0.11-0.34-0.22-0.68-0.34-1.02c-0.84-2.38-1.92-4.68-3.31-6.87
			c-0.3-0.48-0.61-0.97-0.96-1.43c-0.25-0.34-0.53-0.68-0.83-0.97c-0.35-0.35-0.72-0.66-1.15-0.91c-0.44-0.26-0.93-0.47-1.49-0.6
			c-0.13,2.57-0.25,4.96-0.37,7.35c-0.21,0-0.42,0.01-0.63,0.01c0-0.01,0-0.01,0-0.02c-0.09-1.26-0.26-2.49-0.54-3.69
			c-0.09-0.48-0.21-0.94-0.35-1.41c-0.6-2.12-1.49-4.13-2.69-6.03c-0.68-1.07-1.42-2.08-2.23-3c-1.81-2-4.03-3.55-7.04-4.29
			c0.22,0.74,0.41,1.45,0.53,2.15c0.04,0.18,0.07,0.35,0.08,0.52c0.25,1.66,0.15,3.24-0.51,4.84c0-0.01-0.01-0.01-0.01-0.02
			c-0.26-0.47-0.5-0.94-0.74-1.4c-0.49-0.92-0.95-1.82-1.44-2.69c-0.25-0.44-0.5-0.88-0.76-1.3c0-0.01-0.01-0.01-0.01-0.02
			c-0.61-0.98-1.26-1.93-1.94-2.83c-0.91-1.21-1.9-2.35-2.97-3.4c-2.39-2.34-5.19-4.23-8.51-5.48c-2.41-0.92-4.98-1.56-7.64-0.22
			c0,0.01-0.01,0.01-0.01,0.01c0.38,0.21,0.76,0.46,1.13,0.75c0.37,0.29,0.73,0.63,1.08,0.99c2.12,2.18,3.91,5.57,5.08,9.15
			c0.24,0.72,0.45,1.44,0.63,2.17c0,0,0.01,0.01,0.01,0.02c0.9,3.53,1.15,7.07,0.49,9.68c-0.01-0.01-0.01-0.01-0.01-0.02
			c-0.39-0.41-0.79-0.82-1.17-1.24c-0.39-0.4-0.77-0.82-1.13-1.25c-0.57-0.69-1.17-1.34-1.8-1.96c-0.62-0.6-1.27-1.16-1.94-1.69
			c-0.01-0.01-0.02-0.01-0.02-0.02c-0.68-0.53-1.38-1.02-2.11-1.47c-0.74-0.46-1.51-0.88-2.3-1.26c-0.1-0.05-0.19-0.1-0.29-0.15
			c-0.2-0.1-0.41-0.2-0.62-0.31c-0.2-0.09-0.41-0.18-0.62-0.26c-0.9-0.32-1.85-0.34-2.71,0.79c0.24,0.34,0.48,0.7,0.7,1.05
			c0.23,0.36,0.45,0.72,0.66,1.09c1.04,1.82,1.88,3.76,2.54,5.69c0.25,0.75,0.48,1.51,0.68,2.25c0.4,1.51,0.68,2.98,0.84,4.34
			c0.28,2.16,0.26,4.06-0.02,5.42c-1.39-1.11-2.51-2-3.44-2.72C31.01,34.73,31,34.73,31,34.72c-0.7-0.53-1.29-0.96-1.8-1.32
			c-0.01,0-0.02-0.02-0.02-0.02c-0.17-0.1-0.33-0.21-0.48-0.3c-0.01-0.01-0.02-0.01-0.02-0.02c-1.91-1.2-2.83-1.14-4.87-0.88H23.8
			c0.19,0.23,0.37,0.46,0.55,0.7c0.71,0.96,1.31,1.94,1.8,2.94c0.24,0.49,0.46,0.98,0.64,1.47c0.1,0.26,0.2,0.52,0.28,0.78
			c1.45,4.36,1.09,8.94-0.03,13.51c-2.89-1.12-5.75-2.25-8.62-3.34c-0.87-0.32-1.77-0.62-2.43,0.42v0.01
			c0.12,0.12,0.23,0.23,0.33,0.35l0.17,0.17c0.05,0.05,0.11,0.11,0.16,0.16c0.21,0.22,0.39,0.44,0.52,0.69
			c0.9,1.77,1.71,3.57,2.42,5.41c0.48,1.22,0.91,2.45,1.29,3.7c0.58,1.89,1.06,3.81,1.41,5.76c0.01,0.01,0.01,0.01,0.01,0.02
			c0.46,2.44,0.45,4.97,0.9,7.41c0.06,0.34,0.14,0.69,0.22,1.03c0.31,1.24,0.66,2.46,1.06,3.66c0.24,0.71,0.49,1.41,0.77,2.11
			c0.65,1.65,1.41,3.24,2.3,4.77c0.31,0.53,0.63,1.07,0.98,1.59c0.35,0.52,0.71,1.04,1.08,1.54c0.75,1.01,1.57,1.98,2.48,2.93
			c0.3,0.32,0.62,0.63,0.94,0.94c6.9,6.62,15.09,9.36,24.45,8.01c7.01-1.02,13.08-4.31,18.26-9.18c4.82-4.53,8.29-10,10.72-16.11
			c0.96-2.4,1.85-4.95,2.09-7.49C88.9,62.4,88.69,58.59,88.6,54.82z M36.4,70.78c0.08-0.65,0.15-1.31,0.24-1.97
			c0.09-0.66,0.2-1.33,0.32-1.98c0.12-0.65,0.27-1.3,0.45-1.93c0.18-0.63,0.39-1.25,0.64-1.85c0.92-2.21,2.59-4.17,4.16-6.05
			c1.94-2.34,4.61-3.62,7.54-4.34c1.17-0.29,2.35-0.78,3.51-0.75c1.18,0.03,2.35,0.14,3.52,0.32c0.47,0.07,0.93,0.15,1.4,0.24
			c0.23,0.05,0.46,0.09,0.69,0.14c1.43,0.3,2.81,0.86,4.17,1.42c2.9,1.19,4.89,3.46,6.61,5.96c0.21,0.31,0.41,0.63,0.6,0.95
			s0.36,0.65,0.51,0.98c0.14,0.29,0.26,0.57,0.37,0.86c0.7,1.74,1.08,3.59,1.36,5.55c0.39,2.7-0.2,5.17-0.65,7.61
			c-0.36,1.96-2.01,3.67-3.06,5.51c-1.14,1.99-2.91,3.17-4.85,4.31c-3.53,2.08-5.45,2.69-9.67,2.57c-4.24,0.57-7.97-1.7-11.51-4.19
			c-1.3-0.92-2.13-2.55-3.07-3.93c-0.75-1.1-1.41-2.27-1.97-3.48c-0.31-0.67-0.3-1.48-0.47-2.22C36.95,73.26,36.26,71.97,36.4,70.78
			z"/>
		<path class="st0" d="M66.63,70.97c-0.08,6.73-4.65,12.11-11.76,12.02c-7.56,0.12-12-5.44-12.1-12.01
			c-0.03-2.16,0.46-4.19,1.39-5.95c0.12-0.24,0.25-0.47,0.39-0.69c0.11-0.19,0.23-0.37,0.35-0.54c0.59-0.87,1.3-1.65,2.11-2.33
			c0.14-0.12,0.28-0.23,0.43-0.34c0.01-0.01,0.02-0.02,0.04-0.03c0.14-0.11,0.29-0.22,0.45-0.32c0.7-0.49,1.47-0.89,2.29-1.21
			c0.1-0.04,0.21-0.08,0.32-0.12c0.18-0.07,0.37-0.13,0.57-0.19c0.24-0.08,0.49-0.14,0.74-0.2c0.08-0.02,0.15-0.04,0.23-0.06
			c0.26-0.05,0.53-0.1,0.8-0.14h0.03c0.26-0.04,0.52-0.07,0.79-0.09c0.13-0.02,0.26-0.03,0.39-0.03c0.24-0.01,0.49-0.02,0.73-0.02
			C61.37,58.73,66.71,63.85,66.63,70.97z"/>
	</g>
</g>
</svg>
