<?xml version="1.0" encoding="utf-8"?>
<!-- Generator: Adobe Illustrator 23.0.6, SVG Export Plug-In . SVG Version: 6.00 Build 0)  -->
<svg version="1.1" id="Layer_1" xmlns="http://www.w3.org/2000/svg" xmlns:xlink="http://www.w3.org/1999/xlink" x="0px" y="0px"
	 viewBox="0 0 100 100" style="enable-background:new 0 0 100 100;" xml:space="preserve">
<style type="text/css">
	.st0{fill:#FE180C;}
</style>
<g>
	<path class="st0" d="M13.59,19.81c-1.58,0.91-2.59,3.05-2.09,4.86c0.29,1.06,0.68,2.16,1.27,3.07c-0.58-0.91-0.96-2.01-1.25-3.05
		c-0.5-1.81,0.52-3.95,2.09-4.86c0.84-0.49,1.68-0.62,2.58-0.26C15.3,19.19,14.45,19.32,13.59,19.81z M16.41,38.1
		c-2.56-1.25-4.45-0.36-5.23,2.37c-0.44,1.52-0.17,2.86,0.48,4.11c-0.63-1.25-0.9-2.58-0.46-4.09c0.78-2.73,2.67-3.62,5.23-2.37
		c0.1,0.05,0.19,0.1,0.29,0.15C16.62,38.21,16.51,38.15,16.41,38.1z M20.25,16.84c0.14,0.35,0.32,0.69,0.52,1
		c0,0.01,0.01,0.01,0.02,0.02C20.58,17.54,20.4,17.2,20.25,16.84z M21.48,9.38c-1.68,0.76-2.39,2.22-2.11,3.95
		c0.16,0.97,0.34,1.99,0.66,2.93c-0.31-0.93-0.48-1.95-0.64-2.91c-0.28-1.73,0.42-3.19,2.11-3.95c1.23-0.55,2.52-0.9,3.73-0.67
		C24.02,8.47,22.72,8.82,21.48,9.38z M31.52,51.1c-0.09,0.11-0.18,0.22-0.27,0.33c0.01,0.01,0.01,0.02,0.02,0.02
		c0.09-0.11,0.18-0.22,0.27-0.33C31.53,51.11,31.53,51.11,31.52,51.1z M37.27,41.41c-0.16,0.15-0.31,0.3-0.47,0.45
		c0.01,0.01,0.01,0.02,0.02,0.02c0.16-0.15,0.31-0.3,0.47-0.45C37.29,41.42,37.28,41.42,37.27,41.41z M37.66,4.73
		c-2,0.78-2.89,2.36-3.03,4.53c-0.11,1.65,0.2,3.14,0.75,4.53c-0.53-1.38-0.84-2.87-0.73-4.51c0.14-2.18,1.03-3.75,3.03-4.53
		c1.15-0.44,2.3-0.6,3.37-0.35C39.98,4.13,38.81,4.28,37.66,4.73z M42.79,89.04c1.14,1.93,2.29,3.87,3.45,5.8
		c0,0.01,0.01,0.01,0.02,0.02C45.1,92.92,43.94,90.98,42.79,89.04z M47.75,34.83c-0.25-0.63-0.52-1.24-0.81-1.85
		c0.27,0.6,0.54,1.21,0.79,1.83c0.13,0.33,0.25,0.67,0.36,1.01C47.99,35.49,47.88,35.15,47.75,34.83z M48.26,36.35
		c0.05,0.16,0.1,0.33,0.15,0.49c-0.15,0.08-0.31,0.16-0.46,0.24c0.01,0.01,0.01,0.01,0.02,0.02c0.15-0.08,0.31-0.16,0.46-0.24
		C48.37,36.69,48.32,36.52,48.26,36.35z M50.92,49.66c-0.36,1.71-0.43,3.54-1.16,5.07c-1.16,2.42-2.51,4.85-4.24,6.88
		c-3.15,3.68-6.76,6.86-11.87,7.64c-1.85,0.28-2.06,0.66-1.15,2.23c0.95,1.64,1.9,3.28,2.86,4.92c-0.94-1.64-1.89-3.27-2.84-4.9
		c-0.91-1.57-0.7-1.95,1.15-2.23c5.11-0.78,8.72-3.96,11.87-7.64c1.73-2.03,3.08-4.46,4.24-6.88c0.73-1.53,0.8-3.38,1.16-5.08
		C50.93,49.67,50.93,49.67,50.92,49.66z M70.02,54.37c0,0.01,0.01,0.01,0.01,0.02c0.06-0.01,0.12-0.02,0.18-0.04
		C70.15,54.36,70.09,54.37,70.02,54.37z M73.6,46.7L73.6,46.7c-0.57,0-0.85-0.01-1.12,0c-2.17,0.04-2.16,0.06-2.11,2.31
		c0.01,0.52,0.02,1.04,0.02,1.56v-1.54c-0.06-2.25-0.07-2.27,2.11-2.31h1.12C73.61,46.71,73.61,46.71,73.6,46.7z M76.14,30.65
		c-2.7-0.32-5.12,0.93-6.26,3.41c-1.26,2.71-1.4,5.57-0.63,8.43c0.1,0.36,0.2,0.72,0.33,1.07c-0.12-0.34-0.22-0.7-0.31-1.05
		c-0.77-2.87-0.62-5.72,0.63-8.43c1.14-2.48,3.56-3.74,6.26-3.41c0.24,0.03,0.47,0.07,0.7,0.15C76.63,30.73,76.39,30.68,76.14,30.65
		z"/>
	<path class="st0" d="M82.6,77.74c0-1.92-0.49-3.84-0.6-5.77c-0.4-7.05-0.72-14.11-1.09-21.16c-0.18-3.54-0.39-7.08-0.6-10.62
		c-0.09-1.64-0.08-3.29-0.34-4.91c-0.17-1.03-0.47-1.9-0.9-2.61c-0.41-0.7-0.94-1.23-1.56-1.57c-0.21-0.12-0.42-0.21-0.65-0.28
		c-0.23-0.09-0.47-0.14-0.72-0.17c-2.7-0.32-5.12,0.93-6.26,3.41c-1.26,2.71-1.4,5.57-0.63,8.43c0.1,0.36,0.2,0.72,0.33,1.07
		c0.11,0.34,0.25,0.67,0.42,0.97c0.27,0.48,0.61,0.91,1.08,1.21c0.48,0.31,1.08,0.49,1.85,0.5c0.07,0,0.15,0.05,0.25,0.13
		c0.03,0.02,0.06,0.05,0.1,0.09c0.05,0.04,0.12,0.09,0.19,0.14c0.04,0.03,0.08,0.06,0.12,0.1c-0.56,0-0.84-0.01-1.11,0
		c-2.17,0.04-2.16,0.06-2.11,2.31c0.01,0.52,0.02,1.04,0.02,1.56c0,0.59,0.01,1.17,0,1.76c-0.01,0.67-0.01,1.33-0.01,1.99
		c-0.06,0.01-0.12,0.02-0.17,0.03c-0.06,0.01-0.12,0.02-0.19,0.02h-0.01c-0.26-0.47-0.52-0.94-0.77-1.42
		c-7.86-14.8-15.71-29.62-23.61-44.4c-0.29-0.54-0.66-1.04-1.07-1.51c-0.01-0.01-0.02-0.02-0.02-0.02
		c-0.21-0.24-0.42-0.47-0.63-0.69c-0.01,0-0.01-0.01-0.02-0.02c-0.11-0.11-0.22-0.22-0.34-0.34c-0.11-0.11-0.22-0.22-0.33-0.33
		c-0.24-0.24-0.48-0.44-0.74-0.6c-0.13-0.09-0.26-0.17-0.4-0.24c-0.17-0.09-0.34-0.17-0.51-0.23C41.4,4.5,41.22,4.45,41.05,4.4
		c-1.07-0.27-2.24-0.12-3.39,0.33c-2,0.78-2.89,2.36-3.03,4.53c-0.11,1.65,0.2,3.14,0.75,4.53c0.05,0.14,0.11,0.28,0.17,0.41
		c0.17,0.39,0.35,0.78,0.55,1.16c0.2,0.39,0.42,0.77,0.64,1.14c0.53,0.89,1.12,1.77,1.69,2.64c1.88,2.86,3.86,5.66,5.64,8.58
		c0.35,0.56,0.68,1.13,1.01,1.71c0.33,0.58,0.65,1.17,0.97,1.76c0.31,0.59,0.61,1.18,0.88,1.78l0.01,0.01
		c0.27,0.6,0.54,1.21,0.79,1.83c0.13,0.33,0.25,0.67,0.36,1.01c0.06,0.17,0.11,0.35,0.17,0.53c0.05,0.16,0.1,0.33,0.15,0.49
		c-0.15,0.08-0.31,0.16-0.46,0.24c-0.09-0.11-0.19-0.21-0.28-0.32c-0.28-0.32-0.56-0.63-0.8-0.97c-0.01-0.01-0.02-0.01-0.02-0.02
		C41.86,28.9,36.92,22,31.88,15.18c-1.44-1.95-3.03-3.82-4.79-5.48c-0.2-0.19-0.4-0.34-0.61-0.47c-0.24-0.16-0.49-0.28-0.74-0.36
		c-0.08-0.03-0.17-0.06-0.25-0.08c-0.09-0.03-0.17-0.05-0.26-0.06c-1.21-0.26-2.51,0.09-3.75,0.65c-1.68,0.76-2.39,2.22-2.11,3.95
		c0.16,0.97,0.34,1.99,0.66,2.93c0.06,0.2,0.14,0.39,0.22,0.58c0.14,0.35,0.32,0.69,0.52,1c0,0.01,0.01,0.01,0.02,0.02
		c3.21,4.89,6.63,9.66,10,14.45c2.14,3.05,4.32,6.07,6.48,9.1c-0.16,0.15-0.31,0.3-0.47,0.45c-0.38-0.27-0.84-0.47-1.13-0.82
		c-2.33-2.76-4.55-5.61-6.94-8.31c-3.55-4.02-7.14-8.01-10.84-11.9c-0.36-0.38-0.71-0.68-1.05-0.9c-0.07-0.05-0.14-0.1-0.22-0.14
		c-0.14-0.08-0.28-0.16-0.42-0.21c0,0,0-0.01-0.01-0.01c-0.89-0.38-1.74-0.25-2.6,0.24c-1.58,0.91-2.59,3.05-2.09,4.86
		c0.29,1.06,0.68,2.16,1.27,3.07c0.09,0.13,0.18,0.26,0.27,0.38c0.01,0.01,0.01,0.01,0.02,0.02c2.05,2.67,4.13,5.32,6.21,7.97
		c2.09,2.65,4.2,5.29,6.31,7.93c1.92,2.4,3.96,4.71,5.94,7.06c-0.09,0.11-0.18,0.22-0.27,0.33c-0.69-0.48-1.46-0.88-2.06-1.45
		c-3.58-3.41-7.11-6.86-10.68-10.28c-0.55-0.53-1.14-1.06-1.79-1.43c-0.1-0.06-0.21-0.12-0.31-0.17c-2.56-1.25-4.45-0.36-5.23,2.37
		c-0.44,1.52-0.17,2.86,0.48,4.11c0.25,0.5,0.57,0.98,0.93,1.45c5.18,6.84,10.34,13.71,15.55,20.53c0.08,0.11,0.19,0.22,0.32,0.31
		c0.06,0.04,0.12,0.08,0.18,0.12c0.12,0.07,0.24,0.13,0.36,0.18c0.01,0.01,0.02,0.01,0.02,0.01c0.25,0.1,0.5,0.15,0.71,0.13
		c1.54-0.11,3.07-0.38,4.58-0.69c3.94-0.82,7.6-2.33,9.99-5.71c1.9-2.68,3.4-5.66,5-8.55c0.49-0.88,0.74-1.9,1.1-2.85
		c0.17,0.04,0.35,0.09,0.52,0.14v0.01c-0.36,1.71-0.43,3.54-1.16,5.07c-1.16,2.42-2.51,4.85-4.24,6.88
		c-3.15,3.68-6.76,6.86-11.87,7.64c-1.85,0.28-2.06,0.66-1.15,2.23c0.95,1.64,1.9,3.28,2.86,4.92c1.32,2.27,2.64,4.53,3.98,6.8
		c1.14,1.95,2.29,3.89,3.45,5.84c1.14,1.93,2.29,3.87,3.45,5.8c0,0.01,0.01,0.01,0.02,0.02c0.13,0.22,0.36,0.42,0.62,0.58
		c0.47,0.28,1.05,0.47,1.52,0.49c1.88,0.08,3.77-0.15,5.65-0.23c7.53-0.33,15.07-0.64,22.6-0.98c1.95-0.09,3.9-0.26,5.87-0.39
		c-0.09-0.86-0.19-1.35-0.18-1.83C82.43,87.58,82.6,82.66,82.6,77.74z M65.23,54.11c-0.2,0.3-0.4,0.6-0.59,0.91
		c-0.02,0.04-0.05,0.08-0.08,0.13c-0.21,0.35-0.42,0.69-0.62,1.04s-0.4,0.7-0.58,1.05c-0.16,0.31-0.32,0.61-0.47,0.92
		c-0.04,0.08-0.08,0.16-0.12,0.24c-0.15,0.32-0.29,0.64-0.43,0.97c-0.16,0.35-0.3,0.71-0.44,1.06c-0.14,0.36-0.28,0.72-0.4,1.08
		c-0.13,0.36-0.24,0.72-0.35,1.08c-0.09,0.29-0.17,0.58-0.25,0.87c-0.07,0.25-0.14,0.5-0.19,0.75c-0.07,0.25-0.13,0.5-0.18,0.75
		c-0.05,0.26-0.11,0.52-0.15,0.77c-0.02,0.08-0.04,0.15-0.04,0.23c-0.07,0.34-0.12,0.68-0.17,1.02c-0.06,0.37-0.1,0.74-0.14,1.11
		c-0.05,0.44-0.09,0.89-0.11,1.33c-0.03,0.3-0.04,0.6-0.05,0.9c-0.02,0.39-0.02,0.78-0.02,1.16c0,0.43,0.01,0.86,0.03,1.29
		c0.01,0.45,0.04,0.89,0.08,1.33c0.03,0.45,0.07,0.9,0.13,1.34c0.05,0.45,0.11,0.9,0.18,1.35c0.06,0.45,0.14,0.9,0.23,1.35
		c0.06,0.33,0.12,0.66,0.2,0.99c0.11,0.58,0.25,1.16,0.4,1.74c0.12,0.45,0.24,0.9,0.37,1.35h-0.01c-0.14,0.03-0.27,0.05-0.41,0.08
		c-0.32-0.76-0.75-1.49-1.04-2.26c-0.09-0.23-0.16-0.46-0.21-0.69c-0.11-0.5-0.21-1.01-0.3-1.51c-0.11-0.55-0.2-1.11-0.27-1.66
		c-0.05-0.28-0.09-0.56-0.12-0.84c-0.04-0.28-0.07-0.56-0.1-0.84c-0.04-0.31-0.07-0.61-0.09-0.92c-0.14-1.53-0.19-3.05-0.13-4.57
		c0-0.3,0.01-0.59,0.03-0.88c0.02-0.45,0.05-0.89,0.09-1.34c0-0.01,0-0.01,0-0.02c0.09-1.1,0.24-2.2,0.45-3.3
		c0.14-0.74,0.3-1.47,0.48-2.21c0-0.01,0-0.01,0-0.02c0.4-1.61,1.5-3.03,2.25-4.55c0.04-0.09,0.08-0.18,0.11-0.27
		c0.08-0.19,0.13-0.38,0.18-0.57c0.02-0.09,0.05-0.18,0.07-0.27h0.01c0-0.01,0-0.01,0-0.02c-0.42,0.13-0.9,0.15-1.24,0.39
		c-4.06,2.83-7.19,6.57-10.1,10.51c-0.04,0.06-0.09,0.13-0.14,0.2c-0.15,0.2-0.31,0.42-0.54,0.73c0.13-0.38,0.27-0.75,0.42-1.12
		c0.05-0.15,0.11-0.3,0.18-0.44c0.15-0.38,0.31-0.76,0.49-1.13c0.21-0.43,0.43-0.86,0.65-1.28c0.22-0.42,0.46-0.82,0.71-1.22
		c0.49-0.8,1.03-1.56,1.59-2.27c0.28-0.35,0.56-0.69,0.86-1.02c0.59-0.67,1.22-1.27,1.86-1.82c0.31-0.27,0.63-0.53,0.96-0.76
		c0.17-0.12,0.34-0.24,0.51-0.36c0.26-0.17,0.52-0.34,0.79-0.48c0.08-0.05,0.15-0.09,0.23-0.14c0.5-0.27,1-0.51,1.51-0.69
		c0.17-0.07,0.34-0.13,0.52-0.18c1.17-0.38,2.35-0.52,3.52-0.39C65.24,54.1,65.23,54.1,65.23,54.11z"/>
	<path class="st0" d="M61.46,82.22L61.46,82.22c0.01,0.01,0.01,0.01,0.01,0.02c-0.14,0.03-0.28,0.05-0.42,0.08
		c-0.33-0.77-0.77-1.51-1.04-2.28c0.29,0.77,0.72,1.5,1.04,2.26C61.19,82.27,61.32,82.25,61.46,82.22z"/>
	<path class="st0" d="M61.22,55.97c-4.06,2.83-7.19,6.57-10.1,10.51c-0.05,0.06-0.09,0.12-0.14,0.18c0.05-0.07,0.1-0.14,0.14-0.2
		c2.91-3.94,6.04-7.68,10.1-10.51c0.34-0.24,0.82-0.26,1.24-0.39c0,0.01,0,0.01,0,0.02h-0.01C62.03,55.7,61.56,55.73,61.22,55.97z"
		/>
	<path class="st0" d="M65.24,54.11c-0.2,0.3-0.4,0.6-0.6,0.91c0.19-0.31,0.39-0.61,0.59-0.91H65.24z"/>
</g>
</svg>
