<svg id="Layer_1" data-name="Layer 1" xmlns="http://www.w3.org/2000/svg" viewBox="0 0 1000 245.24"><defs><style>.cls-1{fill:#fff;}</style></defs><title>logo-chimera-blanco</title><path class="cls-1" d="M303.53,125.14c-.7-15.38-7.35-28-19.29-37.7-19.93-16.08-49.1-17.53-73.08-3.57a102.74,102.74,0,0,0-9.87,6.8c-.23-8.88-.43-14.89-.59-14.78-.29-10.54-.54-20.23-.82-29.93-.08-2.53-.18-5-3.81-4.89-10.16.35-20.34.55-30.5,1-3.65.17-5.73,2-5.45,6.19.73,10.29,1,20.62,1.71,30.91.83,13.18,2,26.34,2.74,39.52.39,6.76,1.24,13.53-1.34,20.23-9.34,24.2-39,36.28-64.24,26-19.84-8.09-31.13-27.58-26.46-47.41C76.93,98.84,89.74,87.86,108,83.61c6.61-1.54,13.81-1,20.71-.81,5.83.19,7.07-.43,6.4-6.39-.83-7.35-2.38-14.63-3-22-.25-3-1.46-3.73-3.91-4.34a65.25,65.25,0,0,0-27.5-.64C46.17,59,18.28,120.86,47.71,167.68c15.92,25.33,39.95,36.95,69.55,36.48,8.22-.13,16.54-2.08,24.55-4.17,29-7.57,50.59-23.58,60.77-52.3,0-.23,0-.47,0-.7q1.76-4.83,3.53-9.65c4.41-11.92,13.18-20,24.26-25.31a41.64,41.64,0,0,1,16.56-3.57c9.45-.17,18.39,9.43,18.57,18.9.17,9,.07,17.92.2,26.87q.1,6.2.23,12.39a4.92,4.92,0,0,0,4.92,4.82h29.23a4.93,4.93,0,0,0,4.92-5.07c-.41-13.74-.84-27.49-1.46-41.23"/><path class="cls-1" d="M559,170.23c-7.89.14-15.79.1-23.67.52-4.26.22-5.82-1-5.85-5.48-.19-23.09-.7-46.17-1.09-69.26-.16-9.7-7.29-14.81-16.35-10.71a37,37,0,0,0-13,10.12,48,48,0,0,0-10.67,31.66c.19,12.45.29,24.92.73,37.36.15,4.41-1.61,6-5.77,6-9.41.06-18.81.36-28.22.39-5.56,0-6.27-.7-6.55-6.3q-1.09-21.57-2-43.15c-.21-5.13-7.37-9.89-13.79-8.08-4.37,1.23-9,3.29-12.27,6.35-8.7,8.27-14.21,18.39-14.15,30.89,0,5.32-.26,10.63-.3,15.95,0,2.75-1,4.23-3.95,4.37q-14.1.63-28.19,1.47c-3.33.21-5-.76-5.11-4.48-1-34.76-2.15-69.51-3.11-104.26-.16-5.69,1-6.6,6.58-6.78,9.41-.27,18.84-.27,28.24-.63,3.54-.14,4.82,1,4.79,4.62-.08,9.23.22,18.47.37,28C426.3,76.42,446.34,77.7,466,92.13c.47-1.47.88-2.74,1.29-4,10-31.63,48.16-47.85,76.32-32.3C556.62,63,565.27,74,566.1,89.05c1.31,23.93,1.52,47.93,2,71.9.18,9.12-.06,9.12-9.13,9.28"/><path class="cls-1" d="M355.4,96.08c.23,22.44.59,44.89.89,67.35a12.59,12.59,0,0,1,0,1.37c-.55,7.72-.56,7.69-8.28,7.74-8.79.05-17.6-.08-26.39.35-4.3.22-5.66-1.48-5.75-5.36-.26-11.37-.6-22.75-.91-34.12h-.13c-.3-11.07-.44-22.15-1-33.21-.24-4.55,1.62-6.44,5.88-6.57,10.77-.33,21.53-.62,32.3-1,2.59-.08,3.39.92,3.4,3.47"/><path class="cls-1" d="M357.15,62.16c-1.56,6.9-3.24,13.75-4.77,20.66-.53,2.38-1.58,3.38-4.25,3.42-10.46.18-20.91.69-31.38,1-1,0-2.72-.5-3-1.18-2.64-7.35-5.54-14.66-7.35-22.22-1.41-5.82.34-7.23,6.38-7.43,5.6-.18,11.21-.31,16.83-.46v.2l21.8-.6c4.65-.14,6.72,2.24,5.7,6.64"/><path class="cls-1" d="M964.18,170.32c-.63-17.62-.94-35.24-2.15-52.82A52.36,52.36,0,0,0,941,78.23c-15.7-12.08-34.2-15.74-53.34-16.93a181.72,181.72,0,0,0-31.49.86,7.42,7.42,0,0,0-6.57,7.59L850,87.84A7.42,7.42,0,0,0,858.16,95a139.44,139.44,0,0,1,29.25-.27c9.82,1.09,19.51,2.88,28.23,7.88,1.72,1,4.11,2.75,4.22,4.31.65,7.89.63,15.84.85,24a12.94,12.94,0,0,1-1.48-1.11c-14.9-15.43-32.88-24.84-54.38-26.5-18.18-1.4-35,2.63-45.69,18.66-11.61,17.32-11.52,36.86.5,49.81a41.82,41.82,0,0,0,16.15,10.49c15.55,5.84,31,4,46.31-1.36a66.42,66.42,0,0,0,17.45-9.13,70.85,70.85,0,0,0,8.51-7.27c2.93,2.49,5.7,4.93,8.48,7.27,1.67,1.41,3.34,2.78,5,4.11s4.16,3.13,6.3,3.18c10.62.3,21.26.22,31.86-.08,1.33,0,3-1.92,3.76-3.37a9.07,9.07,0,0,0,.69-3.84c0-.5,0-1,0-1.5m-82.35-26.77c-6.23,3.44-12.27,7.3-18.74,10.15-5.16,2.26-10.12-1-12.67-7.26-2.21-5.38-.62-9.9,4.4-12.69s10-2.34,14.76.18c4.27,2.27,8.22,5.17,12.31,7.78,0,.82,0,1-.06,1.84"/><path class="cls-1" d="M843.34,86.91l-.53-19.25a8.4,8.4,0,0,0-10.3-8l-.11,0c-27.45,6.36-48.94,22-66.3,43.72-.79,1-1.63,1.89-2.44,2.84l-1.23-.44-1.7-61.46a10.25,10.25,0,0,0-2.13-.54c-12.12.66-24.24,1.27-36.34,2.1-1.29.08-3.32,1.23-3.58,2.26-1.12,4.29-2.66,8.8-2.34,13.1,1.45,19.25-2,37.24-13.1,53.19-12.46,17.8-29.34,27.83-51.59,27.06-4.57-.15-9.1-1.39-13.65-2.14a44.08,44.08,0,0,1,11-2.48c17.3-2.31,31.92-14.73,36.34-30.88a42.91,42.91,0,0,0-15.47-45c-16.12-12.36-34.68-12.71-53-8-36.08,9.2-52.68,48.59-35.49,82.31,13.08,25.63,36.3,35.36,62.9,37.89,24.85,2.36,46.87-6,65.8-22.31,3.72-3.2,7.22-6.66,11.19-10.34.18,1.64.33,2.68.4,3.71.54,8.64,1,15.62,1.58,24.26.16,2.43.16,4.82,3.88,4.82,12,0,24,.35,36,.28,1.22,0,3.38-1.74,3.5-2.84,1.46-13.71,6-24.71,13.6-36.06,14.77-22.21,32.43-40.58,60.53-44.67l2.62-3.15M629.85,82.63c5-2.81,10-4.33,15.24-.38a15.68,15.68,0,0,1,6.36,15.93,10.31,10.31,0,0,1-2.5,5.66c-8.88,8.48-19.84,12.14-32.06,13.37-3.82-12.74,2.28-28.54,13-34.58"/></svg>