<?xml version="1.0" encoding="utf-8"?>
<!-- Generator: Adobe Illustrator 23.0.6, SVG Export Plug-In . SVG Version: 6.00 Build 0)  -->
<svg version="1.1" id="Layer_1" xmlns="http://www.w3.org/2000/svg" xmlns:xlink="http://www.w3.org/1999/xlink" x="0px" y="0px"
	 viewBox="0 0 1000 1000" style="enable-background:new 0 0 1000 1000;" xml:space="preserve">
<style type="text/css">
	.st0{fill:#FFFFFF;}
</style>
<g>
	<path class="st0" d="M500,986.26C231.88,986.26,13.74,768.12,13.74,500S231.88,13.74,500,13.74S986.26,231.87,986.26,500
		S768.12,986.26,500,986.26 M500,40.02C246.37,40.02,40.02,246.37,40.02,500S246.37,959.98,500,959.98S959.98,753.63,959.98,500
		S753.63,40.02,500,40.02"/>
	<path class="st0" d="M885.16,507.31c-2.03-44.51-21.25-81.17-55.81-109.08c-57.65-46.5-142.05-50.7-211.4-10.31
		c-9.7,5.66-18.81,12.33-28.56,19.67c-0.65-25.7-1.25-43.1-1.71-42.77c-0.84-30.49-1.57-58.53-2.39-86.58
		c-0.2-7.32-0.52-14.52-11-14.15c-29.4,1.01-58.85,1.58-88.24,2.87c-10.56,0.49-16.58,5.7-15.76,17.89
		c2.1,29.77,3.05,59.65,4.95,89.43c2.41,38.13,5.7,76.2,7.91,114.33c1.14,19.55,3.6,39.14-3.87,58.52
		c-27.02,70.01-112.78,104.96-185.83,75.19c-57.42-23.4-90.08-79.8-76.57-137.14c12.73-53.96,49.8-85.73,102.48-98.03
		c19.14-4.45,39.96-2.98,59.91-2.33c16.87,0.53,20.47-1.25,18.51-18.49c-2.39-21.27-6.89-42.33-8.64-63.66
		c-0.72-8.79-4.22-10.81-11.32-12.58c-26.45-6.64-53.07-6.51-79.57-1.85C140.63,315.91,59.97,494.9,145.09,630.36
		c46.06,73.28,115.57,106.88,201.21,105.52c23.77-0.37,47.84-6,71.01-12.05c83.93-21.91,146.35-68.23,175.81-151.32
		c-0.02-0.66-0.03-1.34-0.05-2.02c3.39-9.32,6.8-18.62,10.23-27.92c12.74-34.46,38.12-57.9,70.17-73.2
		c14.43-6.88,31.8-10,47.92-10.33c27.33-0.51,53.2,27.28,53.72,54.65c0.47,25.93,0.19,51.84,0.58,77.73
		c0.19,11.95,0.4,23.9,0.65,35.86c0.16,7.74,6.5,13.93,14.24,13.93h84.56c8.03,0,14.46-6.63,14.22-14.65
		C888.18,586.81,886.95,547.05,885.16,507.31"/>
</g>
</svg>
