<?xml version="1.0" encoding="utf-8"?>
<!-- Generator: Adobe Illustrator 23.0.6, SVG Export Plug-In . SVG Version: 6.00 Build 0)  -->
<svg version="1.1" id="Layer_1" xmlns="http://www.w3.org/2000/svg" xmlns:xlink="http://www.w3.org/1999/xlink" x="0px" y="0px"
	 viewBox="0 0 16 16" style="enable-background:new 0 0 16 16;" xml:space="preserve">
<style type="text/css">
	.st0{fill:#ED2924;}
</style>
<g>
	<path class="st0" d="M8,15.5c-4.1,0-7.5-3.4-7.5-7.5S3.9,0.5,8,0.5s7.5,3.3,7.5,7.5S12.1,15.5,8,15.5 M8,0.9C4.1,0.9,0.9,4.1,0.9,8
		s3.2,7.1,7.1,7.1s7.1-3.2,7.1-7.1S11.9,0.9,8,0.9"/>
	<path class="st0" d="M13.9,8.1c0-0.7-0.3-1.2-0.9-1.7c-0.9-0.7-2.2-0.8-3.2-0.2C9.7,6.4,9.5,6.5,9.4,6.6c0-0.4,0-0.7,0-0.7
		c0-0.5,0-0.9,0-1.3c0-0.1,0-0.2-0.2-0.2c-0.5,0-0.9,0-1.4,0c-0.2,0-0.3,0.1-0.2,0.3c0,0.5,0,0.9,0.1,1.4c0,0.6,0.1,1.2,0.1,1.8
		c0,0.3,0.1,0.6-0.1,0.9c-0.4,1.1-1.7,1.6-2.9,1.2C3.9,9.5,3.4,8.7,3.7,7.8c0.2-0.8,0.8-1.3,1.6-1.5c0.3-0.1,0.6,0,0.9,0
		c0.3,0,0.3,0,0.3-0.3c0-0.3-0.1-0.7-0.1-1c0-0.1-0.1-0.2-0.2-0.2c-0.4-0.1-0.8-0.1-1.2,0C2.5,5.2,1.2,7.9,2.5,10
		c0.7,1.1,1.8,1.6,3.1,1.6c0.4,0,0.7-0.1,1.1-0.2c1.3-0.3,2.2-1,2.7-2.3c0,0,0,0,0,0c0.1-0.1,0.1-0.3,0.2-0.4
		c0.2-0.5,0.6-0.9,1.1-1.1c0.2-0.1,0.5-0.2,0.7-0.2c0.4,0,0.8,0.4,0.8,0.8c0,0.4,0,0.8,0,1.2c0,0.2,0,0.4,0,0.6
		c0,0.1,0.1,0.2,0.2,0.2h1.3c0.1,0,0.2-0.1,0.2-0.2C14,9.3,13.9,8.7,13.9,8.1"/>
</g>
</svg>
