<?xml version="1.0" encoding="utf-8"?>
<!-- Generator: Adobe Illustrator 23.0.6, SVG Export Plug-In . SVG Version: 6.00 Build 0)  -->
<svg version="1.1" id="Layer_1" xmlns="http://www.w3.org/2000/svg" xmlns:xlink="http://www.w3.org/1999/xlink" x="0px" y="0px"
	 viewBox="0 0 1000 245.24" style="enable-background:new 0 0 1000 245.24;" xml:space="preserve">
<style type="text/css">
	.st0{fill:#ED2924;}
</style>
<g>
	<path class="st0" d="M303.53,125.14c-0.7-15.38-7.35-28.06-19.29-37.71c-19.93-16.07-49.1-17.52-73.08-3.56
		c-3.35,1.96-6.5,4.26-9.87,6.8c-0.23-8.88-0.43-14.9-0.59-14.78c-0.29-10.54-0.54-20.23-0.82-29.93c-0.07-2.53-0.18-5.02-3.8-4.89
		c-10.16,0.35-20.34,0.55-30.5,0.99c-3.65,0.17-5.73,1.97-5.45,6.18c0.73,10.29,1.05,20.62,1.71,30.91
		c0.83,13.18,1.97,26.34,2.74,39.52c0.39,6.76,1.24,13.53-1.34,20.23c-9.34,24.2-38.98,36.28-64.23,25.99
		c-19.85-8.09-31.14-27.58-26.47-47.41c4.4-18.65,17.22-29.63,35.42-33.89c6.61-1.54,13.81-1.03,20.71-0.81
		c5.83,0.19,7.07-0.43,6.4-6.39c-0.83-7.35-2.38-14.63-2.99-22.01c-0.25-3.04-1.46-3.74-3.91-4.35c-9.14-2.29-18.34-2.25-27.5-0.64
		c-54.49,9.57-82.37,71.44-52.94,118.27c15.92,25.33,39.95,36.95,69.55,36.48c8.22-0.13,16.54-2.08,24.55-4.16
		c29.01-7.57,50.59-23.59,60.77-52.31c-0.01-0.23-0.01-0.46-0.02-0.7c1.17-3.22,2.35-6.44,3.54-9.65
		c4.4-11.91,13.18-20.02,24.26-25.3c4.99-2.38,10.99-3.46,16.56-3.57c9.45-0.18,18.39,9.43,18.57,18.89
		c0.16,8.96,0.06,17.92,0.2,26.87c0.07,4.13,0.14,8.26,0.22,12.39c0.06,2.68,2.25,4.82,4.92,4.82h29.23c2.77,0,5-2.29,4.92-5.06
		C304.58,152.63,304.15,138.88,303.53,125.14"/>
	<path class="st0" d="M558.98,170.23c-7.9,0.14-15.8,0.1-23.68,0.52c-4.26,0.22-5.81-1-5.84-5.48c-0.19-23.09-0.71-46.17-1.09-69.26
		c-0.16-9.7-7.3-14.81-16.35-10.71c-4.9,2.22-9.63,5.93-13.02,10.12c-7.35,9.07-10.84,19.86-10.67,31.66
		c0.19,12.45,0.29,24.91,0.73,37.36c0.15,4.41-1.6,6.02-5.77,6.04c-9.41,0.05-18.81,0.36-28.22,0.39c-5.56,0.02-6.27-0.7-6.55-6.3
		c-0.73-14.38-1.38-28.77-1.98-43.15c-0.21-5.13-7.37-9.88-13.79-8.08c-4.37,1.23-9.04,3.29-12.27,6.36
		c-8.71,8.26-14.22,18.38-14.15,30.89c0.02,5.31-0.26,10.63-0.3,15.94c-0.01,2.75-1.03,4.24-3.96,4.37
		c-9.4,0.43-18.79,0.91-28.19,1.48c-3.33,0.21-5.01-0.76-5.11-4.48c-0.98-34.75-2.15-69.51-3.11-104.26
		c-0.16-5.68,0.96-6.6,6.57-6.78c9.42-0.28,18.84-0.28,28.24-0.64c3.54-0.14,4.82,0.99,4.79,4.63c-0.09,9.23,0.21,18.47,0.37,27.97
		c20.65-12.4,40.69-11.12,60.32,3.32c0.47-1.47,0.88-2.74,1.29-4.01c10.03-31.63,48.17-47.85,76.33-32.29
		c13.03,7.19,21.67,18.18,22.51,33.22c1.31,23.93,1.52,47.93,2,71.9C568.29,170.07,568.05,170.07,558.98,170.23"/>
	<path class="st0" d="M355.4,96.08c0.23,22.44,0.59,44.89,0.89,67.35c0.01,0.46,0.01,0.91-0.03,1.37c-0.55,7.72-0.56,7.7-8.28,7.74
		c-8.79,0.05-17.59-0.08-26.38,0.35c-4.3,0.21-5.66-1.48-5.75-5.36c-0.26-11.37-0.6-22.75-0.91-34.12l-0.12,0
		c-0.31-11.08-0.44-22.16-0.99-33.22c-0.24-4.55,1.62-6.44,5.88-6.57c10.77-0.32,21.53-0.62,32.3-1.02
		C354.59,92.53,355.39,93.53,355.4,96.08"/>
	<path class="st0" d="M357.15,62.16c-1.57,6.89-3.25,13.75-4.77,20.66c-0.53,2.38-1.58,3.38-4.25,3.43
		c-10.46,0.18-20.91,0.69-31.38,0.96c-1.01,0.03-2.73-0.49-2.97-1.18c-2.64-7.35-5.54-14.66-7.35-22.22
		c-1.41-5.81,0.34-7.23,6.38-7.43c5.6-0.18,11.22-0.31,16.83-0.46l0.01,0.21l21.8-0.6C356.1,55.38,358.17,57.76,357.15,62.16"/>
	<path class="st0" d="M964.18,170.32c-0.63-17.62-0.93-35.24-2.15-52.81c-1.11-16.03-8.2-29.37-21.08-39.28
		c-15.7-12.08-34.2-15.73-53.34-16.93c-10.58-0.68-21.07-0.28-31.49,0.87c-3.83,0.42-6.68,3.74-6.58,7.59l0.5,18.09
		c0.12,4.29,3.84,7.61,8.12,7.19c9.7-0.96,19.43-1.35,29.25-0.26c9.82,1.08,19.51,2.87,28.23,7.88c1.72,0.99,4.11,2.74,4.21,4.3
		c0.65,7.9,0.64,15.84,0.86,24.01c-0.57-0.42-1.09-0.7-1.49-1.11c-14.9-15.43-32.87-24.85-54.37-26.5
		c-18.18-1.4-34.95,2.63-45.69,18.66c-11.61,17.32-11.52,36.86,0.5,49.81c4.03,4.34,9.42,7.95,16.15,10.49
		c15.55,5.84,31.01,3.96,46.31-1.36c6.34-2.2,12.13-5.25,17.44-9.13c2.99-2.16,5.82-4.59,8.51-7.27c2.93,2.49,5.71,4.92,8.48,7.27
		c1.67,1.4,3.34,2.78,5.03,4.11c1.84,1.45,4.15,3.12,6.3,3.17c10.61,0.3,21.25,0.22,31.86-0.08c1.33-0.03,3.05-1.92,3.76-3.37
		c0.54-1.11,0.68-2.49,0.69-3.84C964.2,171.32,964.2,170.8,964.18,170.32 M881.83,143.55c-6.23,3.44-12.27,7.3-18.74,10.15
		c-5.16,2.26-10.12-1.05-12.67-7.26c-2.21-5.38-0.62-9.89,4.4-12.69c4.97-2.77,10.01-2.34,14.76,0.18
		c4.27,2.27,8.22,5.16,12.31,7.78C881.86,142.53,881.85,142.74,881.83,143.55"/>
	<path class="st0" d="M843.34,86.91l-0.53-19.25c-0.15-5.32-5.13-9.16-10.31-7.96l-0.1,0.02c-27.45,6.36-48.94,21.96-66.31,43.72
		c-0.78,0.97-1.63,1.89-2.43,2.84c-0.61-0.21-0.63-0.22-1.24-0.44l-1.69-61.46c-1.27-0.34-1.7-0.56-2.13-0.54
		c-12.12,0.65-24.24,1.26-36.34,2.09c-1.29,0.08-3.32,1.23-3.58,2.26c-1.13,4.29-2.66,8.81-2.34,13.1
		c1.44,19.25-1.96,37.24-13.11,53.19c-12.45,17.81-29.34,27.84-51.58,27.07c-4.57-0.15-9.1-1.4-13.65-2.14c3.82-1.52,7.4-2,11-2.48
		c17.31-2.32,31.93-14.73,36.34-30.88c4.48-16.32-1.56-34.35-15.47-45.02c-16.12-12.36-34.67-12.7-53.01-8.02
		c-36.08,9.2-52.68,48.59-35.49,82.31c13.08,25.63,36.3,35.36,62.9,37.89c24.85,2.36,46.88-6.02,65.8-22.31
		c3.72-3.2,7.22-6.66,11.19-10.34c0.18,1.64,0.34,2.68,0.41,3.71c0.53,8.63,1.01,15.62,1.57,24.25c0.16,2.43,0.16,4.83,3.88,4.82
		c11.99-0.01,23.98,0.35,35.96,0.28c1.22-0.01,3.37-1.74,3.49-2.84c1.46-13.71,6.04-24.71,13.6-36.06
		c14.77-22.21,32.43-40.58,60.53-44.67C841.72,88.86,842.34,88.11,843.34,86.91 M629.85,82.63c4.97-2.81,10.05-4.33,15.24-0.38
		c5.32,4.03,7.4,9.46,6.36,15.93c-0.32,2-1.11,4.33-2.5,5.66c-8.89,8.48-19.84,12.13-32.06,13.37
		C613.07,104.47,619.17,88.67,629.85,82.63"/>
</g>
</svg>
